<svg xmlns="http://www.w3.org/2000/svg" width="128" height="128" viewBox="0 0 108 108">
    <defs>
        <linearGradient id="bgGrad" x1="30" y1="30" x2="78" y2="78" gradientUnits="userSpaceOnUse">
            <stop offset="0" stop-color="#3F51B5"/>
            <stop offset="1" stop-color="#00BCD4"/>
        </linearGradient>
    </defs>
    
    <!-- Background -->
    <rect width="108" height="108" rx="24" ry="24" fill="#0F101A"/>
    
    <!-- Inner glowing circle/gradient for the background highlight of the logo -->
    <path d="M54,54m-24,0a24,24 0,1 1,48 0a24,24 0,1 1,-48 0" fill="url(#bgGrad)"/>
    
    <!-- Sharing nodes/lines -->
    <path d="M42,54m-6,0a6,6 0,1 1,12 0a6,6 0,1 1,-12 0" fill="#FFFFFF"/>
    <path d="M66,38m-6,0a6,6 0,1 1,12 0a6,6 0,1 1,-12 0" fill="#FFFFFF"/>
    <path d="M66,70m-6,0a6,6 0,1 1,12 0a6,6 0,1 1,-12 0" fill="#FFFFFF"/>
    <path d="M42,54 L66,38" stroke="#FFFFFF" stroke-width="4" stroke-linecap="round"/>
    <path d="M42,54 L66,70" stroke="#FFFFFF" stroke-width="4" stroke-linecap="round"/>
    
    <!-- Stylized send/receive wave -->
    <path d="M 32 38 C 24 46, 24 62, 32 70" stroke="#00BCD4" stroke-width="3.5" stroke-linecap="round" fill="none"/>
    <path d="M 26 32 C 14 44, 14 64, 26 76" stroke="#3F51B5" stroke-width="3" stroke-linecap="round" fill="none"/>
</svg>
